inDegrees=no
num_controls=7
num_derivatives=13
num_iterations=80
num_multipliers=7
num_parameters=0
num_slacks=7
num_states=26
objective=0.464114
objective_accelerations=0.014568
objective_balance=0.001198
objective_effort=0.008606
objective_height=0.434055
objective_ligament=0.005688
solver_duration=1158.676576
status=Solve_Succeeded
success=true
DataType=double
version=3
OpenSimVersion=4.5
endheader
time	/jointset/ground_pelvis/pelvis_tilt/value	/jointset/ground_pelvis/pelvis_tx/value	/jointset/ground_pelvis/pelvis_ty/value	/jointset/hip_l/hip_flexion_l/value	/jointset/hip_l/hip_adduction_l/value	/jointset/hip_l/hip_rotation_l/value	/jointset/back/lumbar_extension/value	/jointset/patellofemoral_l/patellar_flexion_l/value	/jointset/knee_l/knee_flexion_l/value	/jointset/knee_l/knee_adduction_l/value	/jointset/knee_l/knee_rotation_l/value	/jointset/ankle_l/ankle_angle_l/value	/jointset/subtalar_l/subtalar_angle_l/value	/jointset/ground_pelvis/pelvis_tilt/speed	/jointset/ground_pelvis/pelvis_tx/speed	/jointset/ground_pelvis/pelvis_ty/speed	/jointset/hip_l/hip_flexion_l/speed	/jointset/hip_l/hip_adduction_l/speed	/jointset/hip_l/hip_rotation_l/speed	/jointset/back/lumbar_extension/speed	/jointset/patellofemoral_l/patellar_flexion_l/speed	/jointset/knee_l/knee_flexion_l/speed	/jointset/knee_l/knee_adduction_l/speed	/jointset/knee_l/knee_rotation_l/speed	/jointset/ankle_l/ankle_angle_l/speed	/jointset/subtalar_l/subtalar_angle_l/speed	/forceset/tau_hip_flexion_l	/forceset/tau_hip_adduction_l	/forceset/tau_hip_rotation_l	/forceset/tau_knee_flexion_l	/forceset/tau_ankle_angle_l	/forceset/tau_subtalar_angle_l	/forceset/tau_lumbar_extension	lambda_cid13_p0	lambda_cid13_p1	lambda_cid13_p2	lambda_cid13_p3	lambda_cid13_p4	lambda_cid13_p5	lambda_cid14_p0	/jointset/ground_pelvis/pelvis_tilt/accel	/jointset/ground_pelvis/pelvis_tx/accel	/jointset/ground_pelvis/pelvis_ty/accel	/jointset/hip_l/hip_flexion_l/accel	/jointset/hip_l/hip_adduction_l/accel	/jointset/hip_l/hip_rotation_l/accel	/jointset/back/lumbar_extension/accel	/jointset/patellofemoral_l/patellar_flexion_l/accel	/jointset/knee_l/knee_flexion_l/accel	/jointset/knee_l/knee_adduction_l/accel	/jointset/knee_l/knee_rotation_l/accel	/jointset/ankle_l/ankle_angle_l/accel	/jointset/subtalar_l/subtalar_angle_l/accel	gamma_cid13_p0	gamma_cid13_p1	gamma_cid13_p2	gamma_cid13_p3	gamma_cid13_p4	gamma_cid13_p5	gamma_cid14_p0
1.5	-0.02375316673250667	0.1418431826164181	0.872283926438182	0.2458645417325503	-0.3980876481927993	-0.4158811415993845	-0.1552463859703164	0.3901202990464814	0.3901202990467347	-0.1742974837510455	-0.1567550609390383	0.1835335876338164	0.0626546616823465	-0.2442660842308448	-0.08747574885873642	0.09106974854428947	-0.09526878644191791	0.2059280382182467	-0.2686350102018792	0.3260592096098178	-0.9108386379714656	-0.9108386379715397	0.0003163905782293825	0.06878850824730803	-0.5834739625042157	-0.1134554077119157	0.01383692647441743	0.04989008553862256	-0.01336339029888242	-0.1730552528019417	-0.02682349927965402	-0.01865977303759069	0.03489262599488384	-44.02792343962561	10.75289149524955	3.729535605869828	4.465470103337394	-540.4817971734269	-47.12729608720862	-40.50816161029925	-0.1034849017609019	-0.06163622344153139	-0.1238534613856581	-0.04466399819135153	0.1809790499484636	-0.06507482431494695	0.221480786158944	-0.5388252832501937	-0.5388252832502056	-0.004274133094020403	0.07561062824913936	-0.3186952604178122	0.07525535715039453	-1.811769738732953e-08	5.238898995233696e-08	5.486949685329229e-08	1.343962965055021e-08	-1.835571242714968e-08	-3.065359698672236e-08	-3.38017149878566e-09
1.51	-0.02620071505748858	0.1409655006462149	0.8731882426767757	0.2449098185716747	-0.3960195724885545	-0.4185706231088287	-0.1519750599626186	0.3809863107450187	0.380986310745114	-0.1742944196067477	-0.1560637521717501	0.1776837873091725	0.06152409314985259	-0.2452107273520372	-0.08804503785165109	0.08977599525705078	-0.09566175904960544	0.207660794290692	-0.2692258416836322	0.3281671377697662	-0.915829745648556	-0.9158297456486223	0.000298653980988724	0.06946010867479038	-0.5863998117054222	-0.1126386343937161	0.01416497064553235	0.04812606162383939	-0.01346058230347518	-0.1718184746536025	-0.0232335471043983	-0.01888163474579373	0.03425690522578106	-42.85798337553199	10.6021906003163	3.801772394079839	3.904717944572309	-539.8410449038075	-47.33943633000325	-40.64520038124537	-0.08503024341875758	-0.05223150114649842	-0.1347632310275831	-0.0345054003041789	0.1654641421768983	-0.05077145984686068	0.1996207067753121	-0.459861736169635	-0.4598617361684426	-0.0001773967620888252	0.06096955476399879	-0.2665858096051417	0.0878241048485717	-1.472881540315748e-08	5.798961618886021e-08	4.377632105921466e-08	1.326934003755366e-08	-1.0798222682601e-08	-1.70661285977193e-08	-2.049981899165284e-09
1.52	-0.02865672505890998	0.1400825945332963	0.8740790959887703	0.2439515873830762	-0.3939349611723257	-0.4212649497630396	-0.1486838202981483	0.3718062897215441	0.3718062897214781	-0.1742914636231724	-0.155366120439229	0.1718073172805898	0.06040227950767969	-0.2459584195180332	-0.08852057740179856	0.08837716322444529	-0.09597039198715925	0.209235160614509	-0.2696040391550349	0.3300419409642268	-0.920045182374892	-0.9200451823749505	0.0002947584348298275	0.07005310129292576	-0.5888079032919497	-0.1117044296477626	0.01449301481670637	0.04636203770905505	-0.01355777430807864	-0.1705816965052412	-0.0196435949291366	-0.01910349645399426	0.03362118445672415	-41.69021231091913	10.45351105995309	3.871811979323087	3.348672728566616	-539.2288447131014	-47.55447854460974	-40.77582706464011	-0.06409471072171549	-0.04288633488802086	-0.1448692104590261	-0.02779606416461956	0.1493011002227554	-0.02254802224484465	0.1748557930613469	-0.3836910930993346	-0.3836910930993345	-0.001505922877719509	0.05988906637977921	-0.2151437374818908	0.09874164270120434	-1.117262653408643e-08	6.214595954911679e-08	3.268467811744631e-08	1.271832139391868e-08	-2.836798845183875e-09	-4.071534534873658e-09	-7.787417313537412e-10
1.53	-0.03111913823880952	0.1391953951639495	0.8749554639503561	0.2429905677677744	-0.3918354210503412	-0.4239619394047897	-0.145375120207351	0.3625879439673503	0.362587943967221	-0.1742885628138185	-0.1546628978167972	0.1659093222410535	0.05929033709884089	-0.2464889371493184	-0.08890459370177047	0.08688050120041549	-0.09621845223617115	0.2106443004210605	-0.2697562495634219	0.3316539983195279	-0.9234891915471535	-0.9234891915471189	0.0002863301723351964	0.07057829244976373	-0.5907035962309638	-0.1106670602521845	0.01483147651526611	0.04454660915387677	-0.01366027342455321	-0.1693517559462674	-0.01607681139064707	-0.01928895641706918	0.03297547990942223	-40.53010743086982	10.29035800375493	3.94416636010064	2.799660223359505	-538.6384631271261	-47.81175284871667	-40.90021964674546	-0.04224230200656903	-0.03395161221883271	-0.1544518730994212	-0.02105310500863318	0.1324256145280418	-0.005910316827545439	0.1477688752553305	-0.3045395072507143	-0.3045395072367436	-0.0003601879038033339	0.04686603186397869	-0.1636547061066686	0.1087711883066188	-7.438674099810193e-09	6.476775235334007e-08	2.159466383125657e-08	1.176277815523038e-08	5.553804965905963e-09	8.293130556429742e-09	4.298646651609187e-10
1.54	-0.03358579899756033	0.1383047971646694	0.8758163878567569	0.2420275191300385	-0.3897226484915572	-0.4266593217039629	-0.1420516219093019	0.3533392013858488	0.3533392013856526	-0.1742857160690922	-0.1539548169044803	0.1599949957453279	0.05818927570402221	-0.2468079352875798	-0.08920030338845857	0.0852883521874428	-0.09637619647474754	0.2118816479738777	-0.26968257063948	0.3330015824144745	-0.9261245478378591	-0.9261245478377315	0.0002839455111038526	0.07102475926773211	-0.5920741945297957	-0.1095282268437852	0.0151699382138929	0.04273118059869634	-0.01376277254107077	-0.1681218153872622	-0.01251002785214968	-0.0194744163801412	0.03232977536217183	-39.37098244786897	10.12930797418101	4.013979421102626	2.251892948686807	-538.0598538848681	-48.06930568655912	-41.01861147624091	-0.02179081211701814	-0.02522501223118347	-0.163966608247618	-0.009732862077533492	0.1149426494758654	0.02262984422097181	0.1219611409904187	-0.2219605167881415	-0.2219605167881499	-0.0002972026251138252	0.04414419860589667	-0.1101248094453482	0.1190344452654628	-5.938014333233493e-09	6.701242723336855e-08	1.704435882706557e-08	1.152000968612952e-08	1.002055379495983e-08	1.400506304218686e-08	9.344368936934249e-10
1.55	-0.03605460029435802	0.1374117020364896	0.876660934189177	0.2410633316314759	-0.3875983570045907	-0.4293548695774642	-0.1387159269155247	0.3440681541038577	0.3440681541038151	-0.1742828321981033	-0.1532426779137976	0.1540696133178948	0.05710012658633249	-0.2469160133990866	-0.08940208521020726	0.08360721907250862	-0.09644962733189545	0.2129479915012001	-0.269390230139969	0.3340957299254918	-0.927949416738594	-0.9279494167385662	0.0002956700009038483	0.07139046504255457	-0.5929119409884301	-0.1082834097613367	0.01552378976084824	0.04090263559367325	-0.01388055179200439	-0.1669736382628026	-0.008829769133232381	-0.01967081746057123	0.03168425109171554	-38.17911119065202	9.97089463153352	4.079238670956562	1.6677975796015	-537.5373992190098	-48.32371534011915	-41.13100264021837	0.0001259174380214825	-0.01515672735142037	-0.1722389595157526	-0.004401215995233106	0.0981697949858301	0.03805288332878409	0.09688859367457278	-0.1424263950629978	-0.1424263950779626	0.00234680770980657	0.03089993557249145	-0.05704611899327968	0.129919947234331	-7.01049611857133e-09	6.882259667899869e-08	2.00289362564814e-08	1.209848171242285e-08	9.966339275146403e-09	1.20518905693802e-08	6.278393199856683e-10
1.56	-0.03852339392665339	0.1365170886980511	0.8774882587311683	0.2400987592206523	-0.385464264164223	-0.4320463906998687	-0.1353705410391334	0.3347829228691978	0.3347829228693024	-0.1742797431756391	-0.1525272586316233	0.1481385641148913	0.05602396856096743	-0.246806402386363	-0.08950394544017985	0.08184399410165338	-0.09645317892751368	0.2138419186535367	-0.2688772204199477	0.3349397589372086	-0.9289613383731997	-0.9289613383732716	0.0003249758077956475	0.07168081756346266	-0.5932075496438942	-0.1069300083788962	0.01587764130786109	0.03907409058864503	-0.01399833104299353	-0.1658254611383119	-0.005149510414308351	-0.01986721854100267	0.03103872682130416	-36.98796089616705	9.814638593640474	4.141834162410541	1.083387013248326	-537.0242198134757	-48.57764655543393	-41.2360266188927	0.02174701272898509	-0.00524069387587822	-0.1803849794318406	0.004242990228390997	0.0804593744786998	0.06676368832308306	0.07193744113025584	-0.05937106356227306	-0.05937106356226761	0.003219060793195253	0.02907354782305726	-0.001697248811204452	0.1407513052639125	-7.297288127795293e-09	7.079695768903304e-08	2.080618143990194e-08	1.243736931628674e-08	1.161079729699584e-08	1.249058993766266e-08	5.38541438843937e-10
